<?xml version="1.0" encoding="utf-8" standalone="no"?>
<!DOCTYPE svg PUBLIC "-//W3C//DTD SVG 1.1//EN"
  "http://www.w3.org/Graphics/SVG/1.1/DTD/svg11.dtd">
<svg height="389.078125pt" version="1.1" viewBox="0 0 412.260938 389.078125" width="412.260938pt" xmlns="http://www.w3.org/2000/svg" xmlns:xlink="http://www.w3.org/1999/xlink">
 <metadata>
  <rdf:RDF xmlns:cc="http://creativecommons.org/ns#" xmlns:dc="http://purl.org/dc/elements/1.1/" xmlns:rdf="http://www.w3.org/1999/02/22-rdf-syntax-ns#">
   <cc:Work>
    <dc:type rdf:resource="http://purl.org/dc/dcmitype/StillImage"/>
    <dc:date>2021-09-13T18:50:30.962867</dc:date>
    <dc:format>image/svg+xml</dc:format>
    <dc:creator>
     <cc:Agent>
      <dc:title>Matplotlib v3.4.3, https://matplotlib.org/</dc:title>
     </cc:Agent>
    </dc:creator>
   </cc:Work>
  </rdf:RDF>
 </metadata>
 <defs>
  <style type="text/css">*{stroke-linecap:butt;stroke-linejoin:round;}</style>
 </defs>
 <g id="figure_1">
  <g id="patch_1">
   <path d="M 0 389.078125 
L 412.260938 389.078125 
L 412.260938 0 
L 0 0 
z
" style="fill:#ffffff;"/>
  </g>
  <g id="axes_1">
   <g id="patch_2">
    <path d="M 52.765625 351 
L 387.565625 351 
L 387.565625 24.84 
L 52.765625 24.84 
z
" style="fill:#ffffff;"/>
   </g>
   <g id="matplotlib.axis_1">
    <g id="xtick_1">
     <g id="line2d_1">
      <path clip-path="url(#pf562c3a263)" d="M 52.765625 351 
L 52.765625 24.84 
" style="fill:none;stroke:#b0b0b0;stroke-linecap:square;stroke-width:0.8;"/>
     </g>
     <g id="line2d_2">
      <defs>
       <path d="M 0 0 
L 0 3.5 
" id="m46f5ac0b7c" style="stroke:#000000;stroke-width:0.8;"/>
      </defs>
      <g>
       <use style="stroke:#000000;stroke-width:0.8;" x="52.765625" xlink:href="#m46f5ac0b7c" y="351"/>
      </g>
     </g>
     <g id="text_1">
      <!-- −0.0015 -->
      <g transform="translate(31.080469 365.598437)scale(0.1 -0.1)">
       <defs>
        <path d="M 678 2272 
L 4684 2272 
L 4684 1741 
L 678 1741 
L 678 2272 
z
" id="DejaVuSans-2212" transform="scale(0.015625)"/>
        <path d="M 2034 4250 
Q 1547 4250 1301 3770 
Q 1056 3291 1056 2328 
Q 1056 1369 1301 889 
Q 1547 409 2034 409 
Q 2525 409 2770 889 
Q 3016 1369 3016 2328 
Q 3016 3291 2770 3770 
Q 2525 4250 2034 4250 
z
M 2034 4750 
Q 2819 4750 3233 4129 
Q 3647 3509 3647 2328 
Q 3647 1150 3233 529 
Q 2819 -91 2034 -91 
Q 1250 -91 836 529 
Q 422 1150 422 2328 
Q 422 3509 836 4129 
Q 1250 4750 2034 4750 
z
" id="DejaVuSans-30" transform="scale(0.015625)"/>
        <path d="M 684 794 
L 1344 794 
L 1344 0 
L 684 0 
L 684 794 
z
" id="DejaVuSans-2e" transform="scale(0.015625)"/>
        <path d="M 794 531 
L 1825 531 
L 1825 4091 
L 703 3866 
L 703 4441 
L 1819 4666 
L 2450 4666 
L 2450 531 
L 3481 531 
L 3481 0 
L 794 0 
L 794 531 
z
" id="DejaVuSans-31" transform="scale(0.015625)"/>
        <path d="M 691 4666 
L 3169 4666 
L 3169 4134 
L 1269 4134 
L 1269 2991 
Q 1406 3038 1543 3061 
Q 1681 3084 1819 3084 
Q 2600 3084 3056 2656 
Q 3513 2228 3513 1497 
Q 3513 744 3044 326 
Q 2575 -91 1722 -91 
Q 1428 -91 1123 -41 
Q 819 9 494 109 
L 494 744 
Q 775 591 1075 516 
Q 1375 441 1709 441 
Q 2250 441 2565 725 
Q 2881 1009 2881 1497 
Q 2881 1984 2565 2268 
Q 2250 2553 1709 2553 
Q 1456 2553 1204 2497 
Q 953 2441 691 2322 
L 691 4666 
z
" id="DejaVuSans-35" transform="scale(0.015625)"/>
       </defs>
       <use xlink:href="#DejaVuSans-2212"/>
       <use x="83.789062" xlink:href="#DejaVuSans-30"/>
       <use x="147.412109" xlink:href="#DejaVuSans-2e"/>
       <use x="179.199219" xlink:href="#DejaVuSans-30"/>
       <use x="242.822266" xlink:href="#DejaVuSans-30"/>
       <use x="306.445312" xlink:href="#DejaVuSans-31"/>
       <use x="370.068359" xlink:href="#DejaVuSans-35"/>
      </g>
     </g>
    </g>
    <g id="xtick_2">
     <g id="line2d_3">
      <path clip-path="url(#pf562c3a263)" d="M 108.565625 351 
L 108.565625 24.84 
" style="fill:none;stroke:#b0b0b0;stroke-linecap:square;stroke-width:0.8;"/>
     </g>
     <g id="line2d_4">
      <g>
       <use style="stroke:#000000;stroke-width:0.8;" x="108.565625" xlink:href="#m46f5ac0b7c" y="351"/>
      </g>
     </g>
     <g id="text_2">
      <!-- −0.0010 -->
      <g transform="translate(86.880469 365.598437)scale(0.1 -0.1)">
       <use xlink:href="#DejaVuSans-2212"/>
       <use x="83.789062" xlink:href="#DejaVuSans-30"/>
       <use x="147.412109" xlink:href="#DejaVuSans-2e"/>
       <use x="179.199219" xlink:href="#DejaVuSans-30"/>
       <use x="242.822266" xlink:href="#DejaVuSans-30"/>
       <use x="306.445312" xlink:href="#DejaVuSans-31"/>
       <use x="370.068359" xlink:href="#DejaVuSans-30"/>
      </g>
     </g>
    </g>
    <g id="xtick_3">
     <g id="line2d_5">
      <path clip-path="url(#pf562c3a263)" d="M 164.365625 351 
L 164.365625 24.84 
" style="fill:none;stroke:#b0b0b0;stroke-linecap:square;stroke-width:0.8;"/>
     </g>
     <g id="line2d_6">
      <g>
       <use style="stroke:#000000;stroke-width:0.8;" x="164.365625" xlink:href="#m46f5ac0b7c" y="351"/>
      </g>
     </g>
     <g id="text_3">
      <!-- −0.0005 -->
      <g transform="translate(142.680469 365.598437)scale(0.1 -0.1)">
       <use xlink:href="#DejaVuSans-2212"/>
       <use x="83.789062" xlink:href="#DejaVuSans-30"/>
       <use x="147.412109" xlink:href="#DejaVuSans-2e"/>
       <use x="179.199219" xlink:href="#DejaVuSans-30"/>
       <use x="242.822266" xlink:href="#DejaVuSans-30"/>
       <use x="306.445312" xlink:href="#DejaVuSans-30"/>
       <use x="370.068359" xlink:href="#DejaVuSans-35"/>
      </g>
     </g>
    </g>
    <g id="xtick_4">
     <g id="line2d_7">
      <path clip-path="url(#pf562c3a263)" d="M 220.165625 351 
L 220.165625 24.84 
" style="fill:none;stroke:#b0b0b0;stroke-linecap:square;stroke-width:0.8;"/>
     </g>
     <g id="line2d_8">
      <g>
       <use style="stroke:#000000;stroke-width:0.8;" x="220.165625" xlink:href="#m46f5ac0b7c" y="351"/>
      </g>
     </g>
     <g id="text_4">
      <!-- 0.0000 -->
      <g transform="translate(202.670313 365.598437)scale(0.1 -0.1)">
       <use xlink:href="#DejaVuSans-30"/>
       <use x="63.623047" xlink:href="#DejaVuSans-2e"/>
       <use x="95.410156" xlink:href="#DejaVuSans-30"/>
       <use x="159.033203" xlink:href="#DejaVuSans-30"/>
       <use x="222.65625" xlink:href="#DejaVuSans-30"/>
       <use x="286.279297" xlink:href="#DejaVuSans-30"/>
      </g>
     </g>
    </g>
    <g id="xtick_5">
     <g id="line2d_9">
      <path clip-path="url(#pf562c3a263)" d="M 275.965625 351 
L 275.965625 24.84 
" style="fill:none;stroke:#b0b0b0;stroke-linecap:square;stroke-width:0.8;"/>
     </g>
     <g id="line2d_10">
      <g>
       <use style="stroke:#000000;stroke-width:0.8;" x="275.965625" xlink:href="#m46f5ac0b7c" y="351"/>
      </g>
     </g>
     <g id="text_5">
      <!-- 0.0005 -->
      <g transform="translate(258.470313 365.598437)scale(0.1 -0.1)">
       <use xlink:href="#DejaVuSans-30"/>
       <use x="63.623047" xlink:href="#DejaVuSans-2e"/>
       <use x="95.410156" xlink:href="#DejaVuSans-30"/>
       <use x="159.033203" xlink:href="#DejaVuSans-30"/>
       <use x="222.65625" xlink:href="#DejaVuSans-30"/>
       <use x="286.279297" xlink:href="#DejaVuSans-35"/>
      </g>
     </g>
    </g>
    <g id="xtick_6">
     <g id="line2d_11">
      <path clip-path="url(#pf562c3a263)" d="M 331.765625 351 
L 331.765625 24.84 
" style="fill:none;stroke:#b0b0b0;stroke-linecap:square;stroke-width:0.8;"/>
     </g>
     <g id="line2d_12">
      <g>
       <use style="stroke:#000000;stroke-width:0.8;" x="331.765625" xlink:href="#m46f5ac0b7c" y="351"/>
      </g>
     </g>
     <g id="text_6">
      <!-- 0.0010 -->
      <g transform="translate(314.270313 365.598437)scale(0.1 -0.1)">
       <use xlink:href="#DejaVuSans-30"/>
       <use x="63.623047" xlink:href="#DejaVuSans-2e"/>
       <use x="95.410156" xlink:href="#DejaVuSans-30"/>
       <use x="159.033203" xlink:href="#DejaVuSans-30"/>
       <use x="222.65625" xlink:href="#DejaVuSans-31"/>
       <use x="286.279297" xlink:href="#DejaVuSans-30"/>
      </g>
     </g>
    </g>
    <g id="xtick_7">
     <g id="line2d_13">
      <path clip-path="url(#pf562c3a263)" d="M 387.565625 351 
L 387.565625 24.84 
" style="fill:none;stroke:#b0b0b0;stroke-linecap:square;stroke-width:0.8;"/>
     </g>
     <g id="line2d_14">
      <g>
       <use style="stroke:#000000;stroke-width:0.8;" x="387.565625" xlink:href="#m46f5ac0b7c" y="351"/>
      </g>
     </g>
     <g id="text_7">
      <!-- 0.0015 -->
      <g transform="translate(370.070313 365.598437)scale(0.1 -0.1)">
       <use xlink:href="#DejaVuSans-30"/>
       <use x="63.623047" xlink:href="#DejaVuSans-2e"/>
       <use x="95.410156" xlink:href="#DejaVuSans-30"/>
       <use x="159.033203" xlink:href="#DejaVuSans-30"/>
       <use x="222.65625" xlink:href="#DejaVuSans-31"/>
       <use x="286.279297" xlink:href="#DejaVuSans-35"/>
      </g>
     </g>
    </g>
    <g id="text_8">
     <!-- $\bf{\Delta{R}} \ = \ (r - r_{r})$$\ _{\it{[nm]}}$ -->
     <g transform="translate(174.815625 379.278125)scale(0.1 -0.1)">
      <defs>
       <path d="M 4922 0 
L 31 0 
L 1759 4666 
L 3194 4666 
L 4922 0 
z
M 1559 909 
L 3384 909 
L 2478 3572 
L 1559 909 
z
" id="DejaVuSans-Bold-394" transform="scale(0.015625)"/>
       <path d="M 2297 2597 
Q 2675 2597 2839 2737 
Q 3003 2878 3003 3200 
Q 3003 3519 2839 3656 
Q 2675 3794 2297 3794 
L 1791 3794 
L 1791 2597 
L 2297 2597 
z
M 1791 1766 
L 1791 0 
L 588 0 
L 588 4666 
L 2425 4666 
Q 3347 4666 3776 4356 
Q 4206 4047 4206 3378 
Q 4206 2916 3982 2619 
Q 3759 2322 3309 2181 
Q 3556 2125 3751 1926 
Q 3947 1728 4147 1325 
L 4800 0 
L 3519 0 
L 2950 1159 
Q 2778 1509 2601 1637 
Q 2425 1766 2131 1766 
L 1791 1766 
z
" id="DejaVuSans-Bold-52" transform="scale(0.015625)"/>
       <path d="M 678 3084 
L 4684 3084 
L 4684 2350 
L 678 2350 
L 678 3084 
z
M 678 1663 
L 4684 1663 
L 4684 922 
L 678 922 
L 678 1663 
z
" id="DejaVuSans-Bold-3d" transform="scale(0.015625)"/>
       <path d="M 2413 -844 
L 1484 -844 
Q 1006 -72 778 623 
Q 550 1319 550 2003 
Q 550 2688 779 3389 
Q 1009 4091 1484 4856 
L 2413 4856 
Q 2013 4116 1813 3408 
Q 1613 2700 1613 2009 
Q 1613 1319 1811 609 
Q 2009 -100 2413 -844 
z
" id="DejaVuSans-Bold-28" transform="scale(0.015625)"/>
       <path d="M 3138 2547 
Q 2991 2616 2845 2648 
Q 2700 2681 2553 2681 
Q 2122 2681 1889 2404 
Q 1656 2128 1656 1613 
L 1656 0 
L 538 0 
L 538 3500 
L 1656 3500 
L 1656 2925 
Q 1872 3269 2151 3426 
Q 2431 3584 2822 3584 
Q 2878 3584 2943 3579 
Q 3009 3575 3134 3559 
L 3138 2547 
z
" id="DejaVuSans-Bold-72" transform="scale(0.015625)"/>
       <path d="M 678 2375 
L 4684 2375 
L 4684 1638 
L 678 1638 
L 678 2375 
z
" id="DejaVuSans-Bold-2212" transform="scale(0.015625)"/>
       <path d="M 513 -844 
Q 913 -100 1113 609 
Q 1313 1319 1313 2009 
Q 1313 2700 1113 3408 
Q 913 4116 513 4856 
L 1441 4856 
Q 1916 4091 2145 3389 
Q 2375 2688 2375 2003 
Q 2375 1319 2147 623 
Q 1919 -72 1441 -844 
L 513 -844 
z
" id="DejaVuSans-Bold-29" transform="scale(0.015625)"/>
       <path d="M 550 4863 
L 1875 4863 
L 1875 4416 
L 1125 4416 
L 1125 -397 
L 1875 -397 
L 1875 -844 
L 550 -844 
L 550 4863 
z
" id="DejaVuSans-5b" transform="scale(0.015625)"/>
       <path d="M 3566 2113 
L 3156 0 
L 2578 0 
L 2988 2091 
Q 3016 2238 3031 2350 
Q 3047 2463 3047 2528 
Q 3047 2791 2881 2937 
Q 2716 3084 2419 3084 
Q 1956 3084 1622 2776 
Q 1288 2469 1184 1941 
L 800 0 
L 225 0 
L 903 3500 
L 1478 3500 
L 1363 2950 
Q 1603 3253 1940 3418 
Q 2278 3584 2650 3584 
Q 3113 3584 3367 3334 
Q 3622 3084 3622 2631 
Q 3622 2519 3608 2391 
Q 3594 2263 3566 2113 
z
" id="DejaVuSans-Oblique-6e" transform="scale(0.015625)"/>
       <path d="M 5747 2113 
L 5338 0 
L 4763 0 
L 5166 2094 
Q 5191 2228 5203 2325 
Q 5216 2422 5216 2491 
Q 5216 2772 5059 2928 
Q 4903 3084 4622 3084 
Q 4203 3084 3875 2770 
Q 3547 2456 3450 1953 
L 3066 0 
L 2491 0 
L 2900 2094 
Q 2925 2209 2937 2307 
Q 2950 2406 2950 2484 
Q 2950 2769 2794 2926 
Q 2638 3084 2363 3084 
Q 1938 3084 1609 2770 
Q 1281 2456 1184 1953 
L 800 0 
L 225 0 
L 909 3500 
L 1484 3500 
L 1375 2956 
Q 1609 3263 1923 3423 
Q 2238 3584 2597 3584 
Q 2978 3584 3223 3384 
Q 3469 3184 3519 2828 
Q 3781 3197 4126 3390 
Q 4472 3584 4856 3584 
Q 5306 3584 5551 3325 
Q 5797 3066 5797 2591 
Q 5797 2488 5784 2364 
Q 5772 2241 5747 2113 
z
" id="DejaVuSans-Oblique-6d" transform="scale(0.015625)"/>
       <path d="M 1947 4863 
L 1947 -844 
L 622 -844 
L 622 -397 
L 1369 -397 
L 1369 4416 
L 622 4416 
L 622 4863 
L 1947 4863 
z
" id="DejaVuSans-5d" transform="scale(0.015625)"/>
      </defs>
      <use transform="translate(0 0.125)" xlink:href="#DejaVuSans-Bold-394"/>
      <use transform="translate(77.392578 0.125)" xlink:href="#DejaVuSans-Bold-52"/>
      <use transform="translate(209.967101 0.125)" xlink:href="#DejaVuSans-Bold-3d"/>
      <use transform="translate(349.328732 0.125)" xlink:href="#DejaVuSans-Bold-28"/>
      <use transform="translate(395.031857 0.125)" xlink:href="#DejaVuSans-Bold-72"/>
      <use transform="translate(465.188107 0.125)" xlink:href="#DejaVuSans-Bold-2212"/>
      <use transform="translate(569.817014 0.125)" xlink:href="#DejaVuSans-Bold-72"/>
      <use transform="translate(620.090451 -16.28125)scale(0.7)" xlink:href="#DejaVuSans-Bold-72"/>
      <use transform="translate(657.346311 0.125)" xlink:href="#DejaVuSans-Bold-29"/>
      <use transform="translate(736.476845 -16.28125)scale(0.7)" xlink:href="#DejaVuSans-5b"/>
      <use transform="translate(763.786416 -16.28125)scale(0.7)" xlink:href="#DejaVuSans-Oblique-6e"/>
      <use transform="translate(808.15165 -16.28125)scale(0.7)" xlink:href="#DejaVuSans-Oblique-6d"/>
      <use transform="translate(876.340126 -16.28125)scale(0.7)" xlink:href="#DejaVuSans-5d"/>
     </g>
    </g>
   </g>
   <g id="matplotlib.axis_2">
    <g id="ytick_1">
     <g id="line2d_15">
      <path clip-path="url(#pf562c3a263)" d="M 52.765625 351 
L 387.565625 351 
" style="fill:none;stroke:#b0b0b0;stroke-linecap:square;stroke-width:0.8;"/>
     </g>
     <g id="line2d_16">
      <defs>
       <path d="M 0 0 
L -3.5 0 
" id="m922a3a8b3c" style="stroke:#000000;stroke-width:0.8;"/>
      </defs>
      <g>
       <use style="stroke:#000000;stroke-width:0.8;" x="52.765625" xlink:href="#m922a3a8b3c" y="351"/>
      </g>
     </g>
     <g id="text_9">
      <!-- 0.0 -->
      <g transform="translate(29.8625 354.799219)scale(0.1 -0.1)">
       <use xlink:href="#DejaVuSans-30"/>
       <use x="63.623047" xlink:href="#DejaVuSans-2e"/>
       <use x="95.410156" xlink:href="#DejaVuSans-30"/>
      </g>
     </g>
    </g>
    <g id="ytick_2">
     <g id="line2d_17">
      <path clip-path="url(#pf562c3a263)" d="M 52.765625 310.23 
L 387.565625 310.23 
" style="fill:none;stroke:#b0b0b0;stroke-linecap:square;stroke-width:0.8;"/>
     </g>
     <g id="line2d_18">
      <g>
       <use style="stroke:#000000;stroke-width:0.8;" x="52.765625" xlink:href="#m922a3a8b3c" y="310.23"/>
      </g>
     </g>
     <g id="text_10">
      <!-- 2.5 -->
      <g transform="translate(29.8625 314.029219)scale(0.1 -0.1)">
       <defs>
        <path d="M 1228 531 
L 3431 531 
L 3431 0 
L 469 0 
L 469 531 
Q 828 903 1448 1529 
Q 2069 2156 2228 2338 
Q 2531 2678 2651 2914 
Q 2772 3150 2772 3378 
Q 2772 3750 2511 3984 
Q 2250 4219 1831 4219 
Q 1534 4219 1204 4116 
Q 875 4013 500 3803 
L 500 4441 
Q 881 4594 1212 4672 
Q 1544 4750 1819 4750 
Q 2544 4750 2975 4387 
Q 3406 4025 3406 3419 
Q 3406 3131 3298 2873 
Q 3191 2616 2906 2266 
Q 2828 2175 2409 1742 
Q 1991 1309 1228 531 
z
" id="DejaVuSans-32" transform="scale(0.015625)"/>
       </defs>
       <use xlink:href="#DejaVuSans-32"/>
       <use x="63.623047" xlink:href="#DejaVuSans-2e"/>
       <use x="95.410156" xlink:href="#DejaVuSans-35"/>
      </g>
     </g>
    </g>
    <g id="ytick_3">
     <g id="line2d_19">
      <path clip-path="url(#pf562c3a263)" d="M 52.765625 269.46 
L 387.565625 269.46 
" style="fill:none;stroke:#b0b0b0;stroke-linecap:square;stroke-width:0.8;"/>
     </g>
     <g id="line2d_20">
      <g>
       <use style="stroke:#000000;stroke-width:0.8;" x="52.765625" xlink:href="#m922a3a8b3c" y="269.46"/>
      </g>
     </g>
     <g id="text_11">
      <!-- 5.0 -->
      <g transform="translate(29.8625 273.259219)scale(0.1 -0.1)">
       <use xlink:href="#DejaVuSans-35"/>
       <use x="63.623047" xlink:href="#DejaVuSans-2e"/>
       <use x="95.410156" xlink:href="#DejaVuSans-30"/>
      </g>
     </g>
    </g>
    <g id="ytick_4">
     <g id="line2d_21">
      <path clip-path="url(#pf562c3a263)" d="M 52.765625 228.69 
L 387.565625 228.69 
" style="fill:none;stroke:#b0b0b0;stroke-linecap:square;stroke-width:0.8;"/>
     </g>
     <g id="line2d_22">
      <g>
       <use style="stroke:#000000;stroke-width:0.8;" x="52.765625" xlink:href="#m922a3a8b3c" y="228.69"/>
      </g>
     </g>
     <g id="text_12">
      <!-- 7.5 -->
      <g transform="translate(29.8625 232.489219)scale(0.1 -0.1)">
       <defs>
        <path d="M 525 4666 
L 3525 4666 
L 3525 4397 
L 1831 0 
L 1172 0 
L 2766 4134 
L 525 4134 
L 525 4666 
z
" id="DejaVuSans-37" transform="scale(0.015625)"/>
       </defs>
       <use xlink:href="#DejaVuSans-37"/>
       <use x="63.623047" xlink:href="#DejaVuSans-2e"/>
       <use x="95.410156" xlink:href="#DejaVuSans-35"/>
      </g>
     </g>
    </g>
    <g id="ytick_5">
     <g id="line2d_23">
      <path clip-path="url(#pf562c3a263)" d="M 52.765625 187.92 
L 387.565625 187.92 
" style="fill:none;stroke:#b0b0b0;stroke-linecap:square;stroke-width:0.8;"/>
     </g>
     <g id="line2d_24">
      <g>
       <use style="stroke:#000000;stroke-width:0.8;" x="52.765625" xlink:href="#m922a3a8b3c" y="187.92"/>
      </g>
     </g>
     <g id="text_13">
      <!-- 10.0 -->
      <g transform="translate(23.5 191.719219)scale(0.1 -0.1)">
       <use xlink:href="#DejaVuSans-31"/>
       <use x="63.623047" xlink:href="#DejaVuSans-30"/>
       <use x="127.246094" xlink:href="#DejaVuSans-2e"/>
       <use x="159.033203" xlink:href="#DejaVuSans-30"/>
      </g>
     </g>
    </g>
    <g id="ytick_6">
     <g id="line2d_25">
      <path clip-path="url(#pf562c3a263)" d="M 52.765625 147.15 
L 387.565625 147.15 
" style="fill:none;stroke:#b0b0b0;stroke-linecap:square;stroke-width:0.8;"/>
     </g>
     <g id="line2d_26">
      <g>
       <use style="stroke:#000000;stroke-width:0.8;" x="52.765625" xlink:href="#m922a3a8b3c" y="147.15"/>
      </g>
     </g>
     <g id="text_14">
      <!-- 12.5 -->
      <g transform="translate(23.5 150.949219)scale(0.1 -0.1)">
       <use xlink:href="#DejaVuSans-31"/>
       <use x="63.623047" xlink:href="#DejaVuSans-32"/>
       <use x="127.246094" xlink:href="#DejaVuSans-2e"/>
       <use x="159.033203" xlink:href="#DejaVuSans-35"/>
      </g>
     </g>
    </g>
    <g id="ytick_7">
     <g id="line2d_27">
      <path clip-path="url(#pf562c3a263)" d="M 52.765625 106.38 
L 387.565625 106.38 
" style="fill:none;stroke:#b0b0b0;stroke-linecap:square;stroke-width:0.8;"/>
     </g>
     <g id="line2d_28">
      <g>
       <use style="stroke:#000000;stroke-width:0.8;" x="52.765625" xlink:href="#m922a3a8b3c" y="106.38"/>
      </g>
     </g>
     <g id="text_15">
      <!-- 15.0 -->
      <g transform="translate(23.5 110.179219)scale(0.1 -0.1)">
       <use xlink:href="#DejaVuSans-31"/>
       <use x="63.623047" xlink:href="#DejaVuSans-35"/>
       <use x="127.246094" xlink:href="#DejaVuSans-2e"/>
       <use x="159.033203" xlink:href="#DejaVuSans-30"/>
      </g>
     </g>
    </g>
    <g id="ytick_8">
     <g id="line2d_29">
      <path clip-path="url(#pf562c3a263)" d="M 52.765625 65.61 
L 387.565625 65.61 
" style="fill:none;stroke:#b0b0b0;stroke-linecap:square;stroke-width:0.8;"/>
     </g>
     <g id="line2d_30">
      <g>
       <use style="stroke:#000000;stroke-width:0.8;" x="52.765625" xlink:href="#m922a3a8b3c" y="65.61"/>
      </g>
     </g>
     <g id="text_16">
      <!-- 17.5 -->
      <g transform="translate(23.5 69.409219)scale(0.1 -0.1)">
       <use xlink:href="#DejaVuSans-31"/>
       <use x="63.623047" xlink:href="#DejaVuSans-37"/>
       <use x="127.246094" xlink:href="#DejaVuSans-2e"/>
       <use x="159.033203" xlink:href="#DejaVuSans-35"/>
      </g>
     </g>
    </g>
    <g id="ytick_9">
     <g id="line2d_31">
      <path clip-path="url(#pf562c3a263)" d="M 52.765625 24.84 
L 387.565625 24.84 
" style="fill:none;stroke:#b0b0b0;stroke-linecap:square;stroke-width:0.8;"/>
     </g>
     <g id="line2d_32">
      <g>
       <use style="stroke:#000000;stroke-width:0.8;" x="52.765625" xlink:href="#m922a3a8b3c" y="24.84"/>
      </g>
     </g>
     <g id="text_17">
      <!-- 20.0 -->
      <g transform="translate(23.5 28.639219)scale(0.1 -0.1)">
       <use xlink:href="#DejaVuSans-32"/>
       <use x="63.623047" xlink:href="#DejaVuSans-30"/>
       <use x="127.246094" xlink:href="#DejaVuSans-2e"/>
       <use x="159.033203" xlink:href="#DejaVuSans-30"/>
      </g>
     </g>
    </g>
    <g id="text_18">
     <!-- $\bf{V(r)}$$\ [\frac{1}{cm}$] -->
     <g transform="translate(16.7 210.32)rotate(-90)scale(0.1 -0.1)">
      <defs>
       <path d="M 31 4666 
L 1241 4666 
L 2478 1222 
L 3713 4666 
L 4922 4666 
L 3194 0 
L 1759 0 
L 31 4666 
z
" id="DejaVuSans-Bold-56" transform="scale(0.015625)"/>
       <path d="M 3431 3366 
L 3316 2797 
Q 3109 2947 2876 3022 
Q 2644 3097 2394 3097 
Q 2119 3097 1870 3000 
Q 1622 2903 1453 2725 
Q 1184 2453 1037 2087 
Q 891 1722 891 1331 
Q 891 859 1127 628 
Q 1363 397 1844 397 
Q 2081 397 2348 469 
Q 2616 541 2906 684 
L 2797 116 
Q 2547 13 2283 -39 
Q 2019 -91 1741 -91 
Q 1044 -91 669 257 
Q 294 606 294 1253 
Q 294 1797 489 2255 
Q 684 2713 1069 3078 
Q 1331 3328 1684 3456 
Q 2038 3584 2456 3584 
Q 2700 3584 2940 3529 
Q 3181 3475 3431 3366 
z
" id="DejaVuSans-Oblique-63" transform="scale(0.015625)"/>
      </defs>
      <use transform="translate(0 0.16875)" xlink:href="#DejaVuSans-Bold-56"/>
      <use transform="translate(77.392578 0.16875)" xlink:href="#DejaVuSans-Bold-28"/>
      <use transform="translate(123.095703 0.16875)" xlink:href="#DejaVuSans-Bold-72"/>
      <use transform="translate(172.412109 0.16875)" xlink:href="#DejaVuSans-Bold-29"/>
      <use transform="translate(250.585613 0.16875)" xlink:href="#DejaVuSans-5b"/>
      <use transform="translate(320.599285 43.965625)scale(0.7)" xlink:href="#DejaVuSans-31"/>
      <use transform="translate(289.599285 -26.484375)scale(0.7)" xlink:href="#DejaVuSans-Oblique-63"/>
      <use transform="translate(328.085613 -26.484375)scale(0.7)" xlink:href="#DejaVuSans-Oblique-6d"/>
      <use transform="translate(408.774089 0.16875)" xlink:href="#DejaVuSans-5d"/>
      <path d="M 289.599285 18.965625 
L 289.599285 25.215625 
L 396.274089 25.215625 
L 396.274089 18.965625 
L 289.599285 18.965625 
z
"/>
     </g>
    </g>
   </g>
   <g id="line2d_33">
    <path clip-path="url(#pf562c3a263)" d="M 79.750561 -1 
L 85.129625 25.752775 
L 90.709625 52.360299 
L 96.289625 77.809061 
L 101.869625 102.102292 
L 107.449625 125.243215 
L 113.029625 147.235045 
L 117.493625 164.003319 
L 121.957625 180.039868 
L 126.421625 195.346328 
L 130.885625 209.924333 
L 135.349625 223.775514 
L 139.813625 236.9015 
L 144.277625 249.303915 
L 148.741625 260.984383 
L 153.205625 271.944524 
L 157.669625 282.185953 
L 161.017625 289.396342 
L 164.365625 296.204043 
L 167.713625 302.609737 
L 171.061625 308.6141 
L 174.409625 314.21781 
L 177.757625 319.421544 
L 181.105625 324.225976 
L 184.453625 328.631782 
L 187.801625 332.639634 
L 191.149625 336.250206 
L 194.497625 339.464169 
L 197.845625 342.282194 
L 201.193625 344.704952 
L 204.541625 346.733112 
L 206.773625 347.866327 
L 209.005625 348.824659 
L 211.237625 349.608308 
L 213.469625 350.217468 
L 215.701625 350.652339 
L 217.933625 350.913118 
L 220.165625 351 
L 222.397625 350.913183 
L 224.629625 350.652864 
L 226.861625 350.219238 
L 229.093625 349.612503 
L 231.325625 348.832854 
L 233.557625 347.880487 
L 235.789625 346.755597 
L 238.021625 345.458381 
L 241.369625 343.189872 
L 244.717625 340.534726 
L 248.065625 337.493601 
L 251.413625 334.067153 
L 254.761625 330.25604 
L 258.109625 326.060916 
L 261.457625 321.482435 
L 264.805625 316.521251 
L 268.153625 311.178016 
L 271.501625 305.453383 
L 274.849625 299.348002 
L 278.197625 292.862522 
L 281.545625 285.997594 
L 286.009625 276.255223 
L 290.473625 265.840964 
L 294.937625 254.756347 
L 299.401625 243.002901 
L 303.865625 230.582153 
L 308.329625 217.495627 
L 312.793625 203.744843 
L 317.257625 189.331318 
L 321.721625 174.25657 
L 326.185625 158.52211 
L 331.765625 137.928616 
L 337.345625 116.309625 
L 342.925625 93.668076 
L 348.505625 70.006897 
L 354.085625 45.329014 
L 359.665625 19.637345 
L 363.996067 -1 
L 363.996067 -1 
" style="fill:none;stroke:#1f77b4;stroke-linecap:square;stroke-width:1.5;"/>
   </g>
   <g id="line2d_34">
    <path clip-path="url(#pf562c3a263)" d="M 87.392251 -1 
L 92.941625 27.809969 
L 98.521625 55.538258 
L 104.101625 82.023126 
L 109.681625 107.264573 
L 115.261625 131.2626 
L 119.725625 149.565758 
L 124.189625 167.073127 
L 128.653625 183.784706 
L 133.117625 199.700496 
L 137.581625 214.820497 
L 142.045625 229.144708 
L 146.509625 242.67313 
L 150.973625 255.405762 
L 155.437625 267.342605 
L 159.901625 278.483659 
L 163.249625 286.317213 
L 166.597625 293.703135 
L 169.945625 300.641425 
L 173.293625 307.132084 
L 176.641625 313.175112 
L 179.989625 318.770508 
L 183.337625 323.918272 
L 186.685625 328.618405 
L 190.033625 332.870906 
L 193.381625 336.675776 
L 196.729625 340.033014 
L 200.077625 342.942621 
L 202.309625 344.633675 
L 204.541625 346.125781 
L 206.773625 347.41894 
L 209.005625 348.513152 
L 211.237625 349.408416 
L 213.469625 350.104733 
L 215.701625 350.602103 
L 217.933625 350.900525 
L 220.165625 351 
L 222.397625 350.900528 
L 224.629625 350.602108 
L 226.861625 350.104741 
L 229.093625 349.408426 
L 231.325625 348.513165 
L 233.557625 347.418955 
L 235.789625 346.125799 
L 238.021625 344.633695 
L 240.253625 342.942644 
L 242.485625 341.052645 
L 245.833625 337.844621 
L 249.181625 334.188966 
L 252.529625 330.085679 
L 255.877625 325.53476 
L 259.225625 320.53621 
L 262.573625 315.090029 
L 265.921625 309.196215 
L 269.269625 302.854771 
L 272.617625 296.065695 
L 275.965625 288.828987 
L 279.313625 281.144648 
L 282.661625 273.012677 
L 287.125625 261.473734 
L 291.589625 249.139001 
L 296.053625 236.008479 
L 300.517625 222.082167 
L 304.981625 207.360066 
L 309.445625 191.842176 
L 313.909625 175.528496 
L 318.373625 158.419027 
L 322.837625 140.513769 
L 327.301625 121.812721 
L 331.765625 102.315884 
L 337.345625 76.825759 
L 342.925625 50.092213 
L 348.505625 22.115246 
L 352.939028 -1 
L 352.939028 -1 
" style="fill:none;stroke:#2ca02c;stroke-linecap:square;stroke-width:1.5;"/>
   </g>
   <g id="patch_3">
    <path d="M 52.765625 351 
L 52.765625 24.84 
" style="fill:none;stroke:#000000;stroke-linecap:square;stroke-linejoin:miter;stroke-width:0.8;"/>
   </g>
   <g id="patch_4">
    <path d="M 387.565625 351 
L 387.565625 24.84 
" style="fill:none;stroke:#000000;stroke-linecap:square;stroke-linejoin:miter;stroke-width:0.8;"/>
   </g>
   <g id="patch_5">
    <path d="M 52.765625 351 
L 387.565625 351 
" style="fill:none;stroke:#000000;stroke-linecap:square;stroke-linejoin:miter;stroke-width:0.8;"/>
   </g>
   <g id="patch_6">
    <path d="M 52.765625 24.84 
L 387.565625 24.84 
" style="fill:none;stroke:#000000;stroke-linecap:square;stroke-linejoin:miter;stroke-width:0.8;"/>
   </g>
   <g id="text_19">
    <!-- $\bf{Morse} \ \bf{potential}$ -->
    <g transform="translate(166.705625 16.32)scale(0.12 -0.12)">
     <defs>
      <path d="M 588 4666 
L 2119 4666 
L 3181 2169 
L 4250 4666 
L 5778 4666 
L 5778 0 
L 4641 0 
L 4641 3413 
L 3566 897 
L 2803 897 
L 1728 3413 
L 1728 0 
L 588 0 
L 588 4666 
z
" id="DejaVuSans-Bold-4d" transform="scale(0.015625)"/>
      <path d="M 2203 2784 
Q 1831 2784 1636 2517 
Q 1441 2250 1441 1747 
Q 1441 1244 1636 976 
Q 1831 709 2203 709 
Q 2569 709 2762 976 
Q 2956 1244 2956 1747 
Q 2956 2250 2762 2517 
Q 2569 2784 2203 2784 
z
M 2203 3584 
Q 3106 3584 3614 3096 
Q 4122 2609 4122 1747 
Q 4122 884 3614 396 
Q 3106 -91 2203 -91 
Q 1297 -91 786 396 
Q 275 884 275 1747 
Q 275 2609 786 3096 
Q 1297 3584 2203 3584 
z
" id="DejaVuSans-Bold-6f" transform="scale(0.015625)"/>
      <path d="M 3272 3391 
L 3272 2541 
Q 2913 2691 2578 2766 
Q 2244 2841 1947 2841 
Q 1628 2841 1473 2761 
Q 1319 2681 1319 2516 
Q 1319 2381 1436 2309 
Q 1553 2238 1856 2203 
L 2053 2175 
Q 2913 2066 3209 1816 
Q 3506 1566 3506 1031 
Q 3506 472 3093 190 
Q 2681 -91 1863 -91 
Q 1516 -91 1145 -36 
Q 775 19 384 128 
L 384 978 
Q 719 816 1070 734 
Q 1422 653 1784 653 
Q 2113 653 2278 743 
Q 2444 834 2444 1013 
Q 2444 1163 2330 1236 
Q 2216 1309 1875 1350 
L 1678 1375 
Q 931 1469 631 1722 
Q 331 1975 331 2491 
Q 331 3047 712 3315 
Q 1094 3584 1881 3584 
Q 2191 3584 2531 3537 
Q 2872 3491 3272 3391 
z
" id="DejaVuSans-Bold-73" transform="scale(0.015625)"/>
      <path d="M 4031 1759 
L 4031 1441 
L 1416 1441 
Q 1456 1047 1700 850 
Q 1944 653 2381 653 
Q 2734 653 3104 758 
Q 3475 863 3866 1075 
L 3866 213 
Q 3469 63 3072 -14 
Q 2675 -91 2278 -91 
Q 1328 -91 801 392 
Q 275 875 275 1747 
Q 275 2603 792 3093 
Q 1309 3584 2216 3584 
Q 3041 3584 3536 3087 
Q 4031 2591 4031 1759 
z
M 2881 2131 
Q 2881 2450 2695 2645 
Q 2509 2841 2209 2841 
Q 1884 2841 1681 2658 
Q 1478 2475 1428 2131 
L 2881 2131 
z
" id="DejaVuSans-Bold-65" transform="scale(0.015625)"/>
      <path d="M 1656 506 
L 1656 -1331 
L 538 -1331 
L 538 3500 
L 1656 3500 
L 1656 2988 
Q 1888 3294 2169 3439 
Q 2450 3584 2816 3584 
Q 3463 3584 3878 3070 
Q 4294 2556 4294 1747 
Q 4294 938 3878 423 
Q 3463 -91 2816 -91 
Q 2450 -91 2169 54 
Q 1888 200 1656 506 
z
M 2400 2772 
Q 2041 2772 1848 2508 
Q 1656 2244 1656 1747 
Q 1656 1250 1848 986 
Q 2041 722 2400 722 
Q 2759 722 2948 984 
Q 3138 1247 3138 1747 
Q 3138 2247 2948 2509 
Q 2759 2772 2400 2772 
z
" id="DejaVuSans-Bold-70" transform="scale(0.015625)"/>
      <path d="M 1759 4494 
L 1759 3500 
L 2913 3500 
L 2913 2700 
L 1759 2700 
L 1759 1216 
Q 1759 972 1856 886 
Q 1953 800 2241 800 
L 2816 800 
L 2816 0 
L 1856 0 
Q 1194 0 917 276 
Q 641 553 641 1216 
L 641 2700 
L 84 2700 
L 84 3500 
L 641 3500 
L 641 4494 
L 1759 4494 
z
" id="DejaVuSans-Bold-74" transform="scale(0.015625)"/>
      <path d="M 4056 2131 
L 4056 0 
L 2931 0 
L 2931 347 
L 2931 1631 
Q 2931 2084 2911 2256 
Q 2891 2428 2841 2509 
Q 2775 2619 2662 2680 
Q 2550 2741 2406 2741 
Q 2056 2741 1856 2470 
Q 1656 2200 1656 1722 
L 1656 0 
L 538 0 
L 538 3500 
L 1656 3500 
L 1656 2988 
Q 1909 3294 2193 3439 
Q 2478 3584 2822 3584 
Q 3428 3584 3742 3212 
Q 4056 2841 4056 2131 
z
" id="DejaVuSans-Bold-6e" transform="scale(0.015625)"/>
      <path d="M 538 3500 
L 1656 3500 
L 1656 0 
L 538 0 
L 538 3500 
z
M 538 4863 
L 1656 4863 
L 1656 3950 
L 538 3950 
L 538 4863 
z
" id="DejaVuSans-Bold-69" transform="scale(0.015625)"/>
      <path d="M 2106 1575 
Q 1756 1575 1579 1456 
Q 1403 1338 1403 1106 
Q 1403 894 1545 773 
Q 1688 653 1941 653 
Q 2256 653 2472 879 
Q 2688 1106 2688 1447 
L 2688 1575 
L 2106 1575 
z
M 3816 1997 
L 3816 0 
L 2688 0 
L 2688 519 
Q 2463 200 2181 54 
Q 1900 -91 1497 -91 
Q 953 -91 614 226 
Q 275 544 275 1050 
Q 275 1666 698 1953 
Q 1122 2241 2028 2241 
L 2688 2241 
L 2688 2328 
Q 2688 2594 2478 2717 
Q 2269 2841 1825 2841 
Q 1466 2841 1156 2769 
Q 847 2697 581 2553 
L 581 3406 
Q 941 3494 1303 3539 
Q 1666 3584 2028 3584 
Q 2975 3584 3395 3211 
Q 3816 2838 3816 1997 
z
" id="DejaVuSans-Bold-61" transform="scale(0.015625)"/>
      <path d="M 538 4863 
L 1656 4863 
L 1656 0 
L 538 0 
L 538 4863 
z
" id="DejaVuSans-Bold-6c" transform="scale(0.015625)"/>
     </defs>
     <use transform="translate(0 0.015625)" xlink:href="#DejaVuSans-Bold-4d"/>
     <use transform="translate(99.511719 0.015625)" xlink:href="#DejaVuSans-Bold-6f"/>
     <use transform="translate(168.212891 0.015625)" xlink:href="#DejaVuSans-Bold-72"/>
     <use transform="translate(217.529297 0.015625)" xlink:href="#DejaVuSans-Bold-73"/>
     <use transform="translate(277.050781 0.015625)" xlink:href="#DejaVuSans-Bold-65"/>
     <use transform="translate(379.605772 0.015625)" xlink:href="#DejaVuSans-Bold-70"/>
     <use transform="translate(451.187804 0.015625)" xlink:href="#DejaVuSans-Bold-6f"/>
     <use transform="translate(519.888976 0.015625)" xlink:href="#DejaVuSans-Bold-74"/>
     <use transform="translate(567.69171 0.015625)" xlink:href="#DejaVuSans-Bold-65"/>
     <use transform="translate(635.513976 0.015625)" xlink:href="#DejaVuSans-Bold-6e"/>
     <use transform="translate(706.705382 0.015625)" xlink:href="#DejaVuSans-Bold-74"/>
     <use transform="translate(754.508116 0.015625)" xlink:href="#DejaVuSans-Bold-69"/>
     <use transform="translate(788.78546 0.015625)" xlink:href="#DejaVuSans-Bold-61"/>
     <use transform="translate(856.265929 0.015625)" xlink:href="#DejaVuSans-Bold-6c"/>
    </g>
   </g>
   <g id="legend_1">
    <g id="patch_7">
     <path d="M 134.065625 67.34 
L 306.265625 67.34 
Q 308.265625 67.34 308.265625 65.34 
L 308.265625 31.84 
Q 308.265625 29.84 306.265625 29.84 
L 134.065625 29.84 
Q 132.065625 29.84 132.065625 31.84 
L 132.065625 65.34 
Q 132.065625 67.34 134.065625 67.34 
z
" style="fill:#ffffff;opacity:0.8;stroke:#cccccc;stroke-linejoin:miter;"/>
    </g>
    <g id="line2d_35">
     <path d="M 136.065625 39.260312 
L 156.065625 39.260312 
" style="fill:none;stroke:#1f77b4;stroke-linecap:square;stroke-width:1.5;"/>
    </g>
    <g id="line2d_36"/>
    <g id="text_20">
     <!-- $\bf{V(r) = D_{e} * (1 - e^{-a*(r - r_{r})})^2}$ -->
     <g transform="translate(164.065625 42.760312)scale(0.1 -0.1)">
      <defs>
       <path d="M 1791 3756 
L 1791 909 
L 2222 909 
Q 2959 909 3348 1275 
Q 3738 1641 3738 2338 
Q 3738 3031 3350 3393 
Q 2963 3756 2222 3756 
L 1791 3756 
z
M 588 4666 
L 1856 4666 
Q 2919 4666 3439 4514 
Q 3959 4363 4331 4000 
Q 4659 3684 4818 3271 
Q 4978 2859 4978 2338 
Q 4978 1809 4818 1395 
Q 4659 981 4331 666 
Q 3956 303 3431 151 
Q 2906 0 1856 0 
L 588 0 
L 588 4666 
z
" id="DejaVuSans-Bold-44" transform="scale(0.015625)"/>
       <path d="M 3219 3803 
L 2188 3263 
L 3219 2719 
L 2981 2278 
L 1941 2853 
L 1941 1778 
L 1409 1778 
L 1409 2853 
L 366 2278 
L 128 2719 
L 1172 3263 
L 128 3803 
L 366 4244 
L 1409 3675 
L 1409 4750 
L 1941 4750 
L 1941 3675 
L 2981 4244 
L 3219 3803 
z
" id="DejaVuSans-Bold-2a" transform="scale(0.015625)"/>
       <path d="M 750 831 
L 1813 831 
L 1813 3847 
L 722 3622 
L 722 4441 
L 1806 4666 
L 2950 4666 
L 2950 831 
L 4013 831 
L 4013 0 
L 750 0 
L 750 831 
z
" id="DejaVuSans-Bold-31" transform="scale(0.015625)"/>
       <path d="M 1844 884 
L 3897 884 
L 3897 0 
L 506 0 
L 506 884 
L 2209 2388 
Q 2438 2594 2547 2791 
Q 2656 2988 2656 3200 
Q 2656 3528 2436 3728 
Q 2216 3928 1850 3928 
Q 1569 3928 1234 3808 
Q 900 3688 519 3450 
L 519 4475 
Q 925 4609 1322 4679 
Q 1719 4750 2100 4750 
Q 2938 4750 3402 4381 
Q 3866 4013 3866 3353 
Q 3866 2972 3669 2642 
Q 3472 2313 2841 1759 
L 1844 884 
z
" id="DejaVuSans-Bold-32" transform="scale(0.015625)"/>
      </defs>
      <use transform="translate(0 0.60625)" xlink:href="#DejaVuSans-Bold-56"/>
      <use transform="translate(77.392578 0.60625)" xlink:href="#DejaVuSans-Bold-28"/>
      <use transform="translate(123.095703 0.60625)" xlink:href="#DejaVuSans-Bold-72"/>
      <use transform="translate(172.412109 0.60625)" xlink:href="#DejaVuSans-Bold-29"/>
      <use transform="translate(238.955078 0.60625)" xlink:href="#DejaVuSans-Bold-3d"/>
      <use transform="translate(343.583984 0.60625)" xlink:href="#DejaVuSans-Bold-44"/>
      <use transform="translate(427.548828 -15.8)scale(0.7)" xlink:href="#DejaVuSans-Bold-65"/>
      <use transform="translate(498.598633 0.60625)" xlink:href="#DejaVuSans-Bold-2a"/>
      <use transform="translate(571.733398 0.60625)" xlink:href="#DejaVuSans-Bold-28"/>
      <use transform="translate(617.436523 0.60625)" xlink:href="#DejaVuSans-Bold-31"/>
      <use transform="translate(707.856445 0.60625)" xlink:href="#DejaVuSans-Bold-2212"/>
      <use transform="translate(812.485352 0.60625)" xlink:href="#DejaVuSans-Bold-65"/>
      <use transform="translate(881.264648 38.8875)scale(0.7)" xlink:href="#DejaVuSans-Bold-2212"/>
      <use transform="translate(939.916992 38.8875)scale(0.7)" xlink:href="#DejaVuSans-Bold-61"/>
      <use transform="translate(1001.741211 38.8875)scale(0.7)" xlink:href="#DejaVuSans-Bold-2a"/>
      <use transform="translate(1052.935547 38.8875)scale(0.7)" xlink:href="#DejaVuSans-Bold-28"/>
      <use transform="translate(1084.927734 38.8875)scale(0.7)" xlink:href="#DejaVuSans-Bold-72"/>
      <use transform="translate(1134.037109 38.8875)scale(0.7)" xlink:href="#DejaVuSans-Bold-2212"/>
      <use transform="translate(1207.277344 38.8875)scale(0.7)" xlink:href="#DejaVuSans-Bold-72"/>
      <use transform="translate(1242.46875 27.403125)scale(0.49)" xlink:href="#DejaVuSans-Bold-72"/>
      <use transform="translate(1268.547852 38.8875)scale(0.7)" xlink:href="#DejaVuSans-Bold-29"/>
      <use transform="translate(1303.274414 0.60625)" xlink:href="#DejaVuSans-Bold-29"/>
      <use transform="translate(1349.93457 38.8875)scale(0.7)" xlink:href="#DejaVuSans-Bold-32"/>
     </g>
    </g>
    <g id="line2d_37">
     <path d="M 136.065625 55.84 
L 156.065625 55.84 
" style="fill:none;stroke:#2ca02c;stroke-linecap:square;stroke-width:1.5;"/>
    </g>
    <g id="line2d_38"/>
    <g id="text_21">
     <!-- $\bf{V(r) = \frac{1}{2}*k*(r - r_{r})^2}$ -->
     <g transform="translate(164.065625 59.34)scale(0.1 -0.1)">
      <defs>
       <path d="M 538 4863 
L 1656 4863 
L 1656 2216 
L 2944 3500 
L 4244 3500 
L 2534 1894 
L 4378 0 
L 3022 0 
L 1656 1459 
L 1656 0 
L 538 0 
L 538 4863 
z
" id="DejaVuSans-Bold-6b" transform="scale(0.015625)"/>
      </defs>
      <use transform="translate(0 0.16875)" xlink:href="#DejaVuSans-Bold-56"/>
      <use transform="translate(77.392578 0.16875)" xlink:href="#DejaVuSans-Bold-28"/>
      <use transform="translate(123.095703 0.16875)" xlink:href="#DejaVuSans-Bold-72"/>
      <use transform="translate(172.412109 0.16875)" xlink:href="#DejaVuSans-Bold-29"/>
      <use transform="translate(238.955078 0.16875)" xlink:href="#DejaVuSans-Bold-3d"/>
      <use transform="translate(343.583984 43.965625)scale(0.7)" xlink:href="#DejaVuSans-Bold-31"/>
      <use transform="translate(343.583984 -39.2375)scale(0.7)" xlink:href="#DejaVuSans-Bold-32"/>
      <use transform="translate(425.629883 0.16875)" xlink:href="#DejaVuSans-Bold-2a"/>
      <use transform="translate(498.764648 0.16875)" xlink:href="#DejaVuSans-Bold-6b"/>
      <use transform="translate(586.108398 0.16875)" xlink:href="#DejaVuSans-Bold-2a"/>
      <use transform="translate(659.243164 0.16875)" xlink:href="#DejaVuSans-Bold-28"/>
      <use transform="translate(704.946289 0.16875)" xlink:href="#DejaVuSans-Bold-72"/>
      <use transform="translate(775.102539 0.16875)" xlink:href="#DejaVuSans-Bold-2212"/>
      <use transform="translate(879.731445 0.16875)" xlink:href="#DejaVuSans-Bold-72"/>
      <use transform="translate(930.004883 -16.2375)scale(0.7)" xlink:href="#DejaVuSans-Bold-72"/>
      <use transform="translate(967.260742 0.16875)" xlink:href="#DejaVuSans-Bold-29"/>
      <use transform="translate(1013.920898 38.45)scale(0.7)" xlink:href="#DejaVuSans-Bold-32"/>
      <path d="M 343.583984 18.965625 
L 343.583984 25.215625 
L 392.290039 25.215625 
L 392.290039 18.965625 
L 343.583984 18.965625 
z
"/>
     </g>
    </g>
   </g>
  </g>
 </g>
 <defs>
  <clipPath id="pf562c3a263">
   <rect height="326.16" width="334.8" x="52.765625" y="24.84"/>
  </clipPath>
 </defs>
</svg>
